<svg fill="currentColor" id="Capa_1" data-name="Capa 1" xmlns="http://www.w3.org/2000/svg" viewBox="0 0 41.59 45.44">
  <path d="M39.48,11.11c-.37-3.63-1-6.45-1.9-7.56C33.72-1,6.72-1.35,3.65,3.55c-.75,1.2-1.27,4-1.62,7.57a2.28,2.28,0,0,0-2,2.26v4.45A2.29,2.29,0,0,0,1.5,20c-.21,7,0,14.3.27,17.93,0,2.81,1.88,2.34,1.88,2.34H5.42v3a2.52,2.52,0,0,0,2.76,2.17,2.51,2.51,0,0,0,2.76-2.17v-3H31.48v3a2.51,2.51,0,0,0,2.76,2.17A2.52,2.52,0,0,0,37,43.27v-3h.58s2.22.3,2.36-1c0-3.62.23-11.64,0-19.22a2.27,2.27,0,0,0,1.61-2.17V13.38A2.29,2.29,0,0,0,39.48,11.11Z" />
  <rect fill="#fff" class="cls-1" x="10.25" y="4.2" width="20.73" height="3.14" />
  <path fill="#fff" class="cls-1" d="M10.55,36.67a3,3,0,1,1,2.94-3A2.95,2.95,0,0,1,10.55,36.67Z" />
  <path fill="#fff" class="cls-1" d="M30.87,36.67a3,3,0,1,1,2.95-3A3,3,0,0,1,30.87,36.67Z" />
  <rect fill="#fff" class="cls-1" x="6.61" y="9.08" width="28.01" height="14.69" />
</svg>