<svg fill="currentColor" id="Layer_1" data-name="Layer 1" xmlns="http://www.w3.org/2000/svg" viewBox="0 0 171 230"><path d="M171,85.5C171,156,85.5,230,85.5,230S0,156,0,85.5a85.5,85.5,0,0,1,171,0Z"/><circle cx="85.5" cy="86.5" r="64" style="fill:#fff"/><path d="M108.35,111.28a20.17,20.17,0,0,1-9.5,6.31,40.85,40.85,0,0,1-12.76,1.91H67.49V50.3h17q10.5,0,17.49,4t7,13.4a13.94,13.94,0,0,1-3.67,10.05,17.93,17.93,0,0,1-9.2,5.07Q112,85.58,112,99.75,112,106.89,108.35,111.28ZM86.49,57.33H76.19V79.75H87.35q6.27,0,9.49-2.79t3.22-8.77Q100.06,57.33,86.49,57.33ZM98.83,89.85c-2.66-1.94-6.28-2.92-10.83-2.92H76.19v25.38H87.6a20.54,20.54,0,0,0,10.8-2.66q4.42-2.67,4.42-9.6Q102.82,92.76,98.83,89.85Z"/></svg>