<svg fill="currentColor" id="Capa_1" data-name="Capa 1" xmlns="http://www.w3.org/2000/svg" viewBox="0 0 512 512">
  <path d="M400,0A112.12,112.12,0,0,0,288,112c0,57.47,89.86,159.26,100.1,170.69a16,16,0,0,0,23.8,0C422.14,271.26,512,169.47,512,112A112.12,112.12,0,0,0,400,0Z" />
  <circle class="cls-1" cx="400" cy="112" r="48" />
  <path d="M10.05,188A16,16,0,0,0,0,202.85V496a16,16,0,0,0,22,14.85L160,455.62V128Z" />
  <path d="M435.71,304.06a48,48,0,0,1-71.42,0c-3.27-3.61-7.46-8.38-12.29-14V512l150-60A16,16,0,0,0,512,437.18V202C485.79,246.34,450.75,287.3,435.71,304.06Z" />
  <path d="M266.08,157.63,192,128V455.62l128,51.2v-257C299.55,222.3,278.21,189.12,266.08,157.63Z" />
</svg>