<svg height="512" viewBox="0 0 64 64" width="512" xmlns="http://www.w3.org/2000/svg"><g id="Flat"><path d="m53 24.267c0 18.366-21 36.733-21 36.733s-21-18.367-21-36.733a21 21 0 1 1 42 0z" fill="currentColor"/><path d="m19.625 46.953a86.778 86.778 0 0 0 12.375 14.047s17.6-15.4 20.567-32.1c-8.144 9.04-20.061 15.6-32.942 18.053z" fill="currentColor"/><circle cx="32" cy="24" fill="#eee" r="17"/><path d="m36 11h-8a5.006 5.006 0 0 0 -5 5v14a1 1 0 0 0 1 1h2.382l-2.277 4.553 1.79.894.723-1.447h10.764l.723 1.447 1.79-.894-2.277-4.553h2.382a1 1 0 0 0 1-1v-14a5.006 5.006 0 0 0 -5-5zm-9.5 17a1.5 1.5 0 1 1 1.5-1.5 1.5 1.5 0 0 1 -1.5 1.5zm1.118 5 1-2h6.764l1 2zm9.882-5a1.5 1.5 0 1 1 1.5-1.5 1.5 1.5 0 0 1 -1.5 1.5zm1.5-6h-14v-6a3 3 0 0 1 3-3h8a3 3 0 0 1 3 3z" fill="currentColor"/></g></svg>