<svg id="Capa_1" data-name="Capa 1" xmlns="http://www.w3.org/2000/svg" viewBox="0 0 459.96 582.67">
  <!-- <defs>
    <style>.cls-1{fill:#fff;}</style>
  </defs> -->
  <path fill="currentColor" d="M456.93,545.7,371.5,390.15c24.23-3.82,42.08-25.5,42.08-49.73V110.92A111,111,0,0,0,302.65,0H157.3C96.1,0,45.1,49.72,45.1,112.2V340.42c0,25.5,17.85,45.9,42.08,49.73L3,545.7c-6.38,12.75-2.55,28,10.2,34.42,3.82,2.55,7.65,2.55,11.47,2.55,8.93,0,17.85-5.09,21.68-12.75L54,557.17h351.9l7.65,12.75c5.1,8.93,12.75,12.75,21.67,12.75,3.83,0,7.65-1.27,11.48-2.55C459.48,573.75,463.3,558.45,456.93,545.7Z" />
  <polygon fill="#fff" class="cls-1" points="337.08 430.95 122.88 430.95 144.55 391.43 315.4 391.43 337.08 430.95" />
  <path class="cls-1" fill="#fff" d="M333.25,345.52a37,37,0,1,1,37-37C370.23,327.67,353.65,345.52,333.25,345.52Z" />
  <path class="cls-1" fill="#fff" d="M89.73,126.22c0-39.52,31.87-71.4,70.12-71.4h139c38.25,0,71.4,31.88,71.4,71.4v61.21c0,14-11.48,24.22-25.5,24.22H115.23A24.21,24.21,0,0,1,91,187.43l-1.27-61.21Z" />
  <path class="cls-1" fill="#fff" d="M126.7,270.3a37,37,0,1,1-37,37A37,37,0,0,1,126.7,270.3Z" />
  <polygon fill="#fff" class="cls-1" points="74.43 518.92 102.48 469.2 357.48 469.2 385.53 518.92 74.43 518.92" />
</svg>